<svg xmlns="http://www.w3.org/2000/svg" viewBox="0 0 2733.15 617" width="2733.15" height="617"><defs><style>.cls-1{fill:#fff;}</style></defs><title>Asset 4</title><g id="Layer_2" data-name="Layer 2"><g id="Layer_1-2" data-name="Layer 1"><path class="cls-1" d="M91.49,140.32h0a2.86,2.86,0,0,1,.34,0l-.25-.42Z"/><path class="cls-1" d="M2595.82,277.86l-.16,0a3.09,3.09,0,0,1-.51-.23c0,.35,0,.7,0,1.05Z"/><path class="cls-1" d="M281,2.33c-16.54,2-33,4.37-49.18,8.59a307.36,307.36,0,0,0-228.67,266c-4.29,40.46-.16,80,11.1,119.89,6.3-21.36,12.38-41.88,18.49-62.38q17.2-57.72,34.23-115.49C74,195,81.19,171,88.09,147c.71-2.47.73-6.23,3.4-6.68l.13-.45.25.42c2.58-.09,3.45,3.42,4.73,5.53,19.39,31.9,38.24,64.12,57.5,96.09.69,1.14,1.44,2.25,2.07,3.42,1.53,2.85,2.91,2.84,4.39-.07,2.56-5.05,5.26-10,7.92-15,18.41-34.55,37.12-68.94,55.83-103.32,15.44-28.39,31.06-56.68,46.55-85,4.18-7.66,5.52-7.58,11.5-.79,35.3,40.12,63.92,84.82,90.28,131.09,12.21,21.43,23.85,43.18,34.67,65.33Q446.14,317.05,477.05,400c13.79,37,26.59,74.36,38.66,112,1.38,4.28,2.41,8.67,3.95,12.91s2.24,4.52,5.5,1.15c9.14-9.47,18.17-19,26.2-29.5,32.67-42.51,53.17-90.23,61-143.28,2.61-17.63,4.14-35.43,3.39-53.26-3-71.47-26.53-135.2-72.91-190C501.26,60.88,449,28.28,387,11.34c-16.75-4.57-33.9-7.06-51.13-9-1.75-.2-4.18.57-4.69-2.31h-8c-2,1.64-4,1.44-6,0h-19c-2.67,1.34-5.33,1.74-8,0h-5C284.87,2.74,282.54,2.14,281,2.33Z"/><path class="cls-1" d="M282.16,1c-6.28.76-12.6,1.24-18.85,2.2Q169.92,17.61,100,81.2C13.73,159.69-20.82,283.67,12.55,395.32c.43,1.44.12,3.46,2.26,4.24L91.49,140.32c-2.67.45-2.69,4.21-3.4,6.68C81.19,171,74,195,66.92,218.93q-17.1,57.75-34.23,115.49c-6.11,20.51-12.18,41-18.49,62.38C2.95,356.94-1.18,317.36,3.11,276.91A307,307,0,0,1,37.38,164.32a307.38,307.38,0,0,1,194.4-153.4C248,6.7,264.42,4.36,281,2.33c1.58-.19,3.9.41,4.19-2.33C284.58,1.55,283.2.91,282.16,1Z"/><path class="cls-1" d="M335.85,2.31c17.23,2,34.38,4.45,51.13,9C449,28.28,501.26,60.88,542.87,110c46.38,54.79,69.91,118.52,72.91,190,.75,17.84-.77,35.63-3.39,53.26-7.86,53-28.36,100.76-61,143.28-8,10.46-17.06,20-26.2,29.5-3.26,3.37-3.94,3.14-5.5-1.15s-2.57-8.62-3.95-12.91c-12.07-37.6-24.87-75-38.66-112q-30.91-83-69.76-162.53c-10.82-22.16-22.46-43.9-34.67-65.33-26.35-46.27-55-91-90.28-131.09-6-6.79-7.32-6.87-11.5.79-15.48,28.37-31.11,56.66-46.55,85-18.71,34.39-37.42,68.77-55.83,103.32-2.66,5-5.36,10-7.92,15-1.47,2.91-2.86,2.92-4.39.07-.63-1.17-1.38-2.28-2.07-3.42-19.27-32-38.11-64.19-57.5-96.09-1.28-2.1-2.15-5.62-4.73-5.53L158.45,251.7c38.7-72.49,77.62-144,117.16-215.56a261.31,261.31,0,0,1,18.62,20.93c35,43.09,63.81,90.18,90,138.93,49.06,91.22,87.35,187,119.93,285.14,5.58,16.81,10.91,33.7,16.48,50.95,1.5-1.36,2.77-2.4,3.91-3.56,77.2-79.25,106.92-173.63,85.81-282.09C585,115.87,476.87,19.26,349.58,2.68c-6.14-.8-12.48-.49-18.43-2.68C331.66,2.89,334.09,2.11,335.85,2.31Z"/><path class="cls-1" d="M335.84,614.7a321.66,321.66,0,0,0,74.05-16.18c13.23-4.64,10.84-2.85,8.54-14.78Q399.9,488,372.58,394.3c-13.87-47.37-29.76-94-49.16-139.47-12.9-30.21-27.12-59.78-44.61-87.68-.86-1.37-1.47-3-3.2-4a111.47,111.47,0,0,0-8.5,11.77c-34.44,51.55-68.19,103.55-102.47,155.21-6,9.1-6.29,9.2-11.32-.23-12.09-22.63-24.48-45.1-36.58-67.72-6.66-12.46-13.35-24.91-20.23-37.19-1.49.26-1.51,1.43-1.83,2.27-22.64,60.38-45,120.86-68,181.12-3.21,8.44-3.33,15.43.49,23.68,14,30.32,31.59,58.16,54.12,83a307,307,0,0,0,69.2,56.95,303.84,303.84,0,0,0,124,42c3.23.37,7.39-.88,9.62,3.09h9c2.33-1.7,4.67-1.43,7,0h18c2.33-1.38,4.67-1.75,7,0h6C331.66,614.11,334.09,614.88,335.84,614.7Z"/><path class="cls-1" d="M334.68,616a315.24,315.24,0,0,0,83.88-19.19c2.51-.95,3.65-1.78,2.9-4.95-2-8.57-3.47-17.28-5.23-25.92-16.59-81.2-37-161.39-64.13-239.76-18.32-52.87-39.47-104.51-68-152.86-2.6-4.41-5.34-8.74-8.45-13.81L158.6,336.86,95.77,220.74,94,225.34q-35.56,95-71.18,190c-1.23,3.29-1.54,6,0,9.39C70.17,532,151.33,595.53,267.28,614.27c5.62.91,11.49.34,16.87,2.73-2.24-4-6.39-2.72-9.62-3.09a303.84,303.84,0,0,1-124-42A307,307,0,0,1,81.3,515c-22.53-24.81-40.07-52.65-54.12-83-3.82-8.25-3.7-15.24-.49-23.68,23-60.26,45.35-120.74,68-181.12.32-.84.33-2,1.83-2.27,6.88,12.28,13.57,24.73,20.23,37.19,12.1,22.62,24.49,45.09,36.58,67.72,5,9.43,5.28,9.33,11.32.23,34.28-51.65,68-103.66,102.47-155.21a111.47,111.47,0,0,1,8.5-11.77c1.73,1.08,2.34,2.67,3.2,4,17.49,27.89,31.71,57.46,44.61,87.68,19.39,45.42,35.28,92.1,49.16,139.47Q400,487.92,418.43,583.74c2.31,11.93,4.7,10.14-8.54,14.78a321.66,321.66,0,0,1-74.05,16.18c-1.75.18-4.18-.59-4.69,2.3C331.94,615.36,333.48,616.09,334.68,616Z"/><path class="cls-1" d="M2730.23,296.35c-2-9.87-4.75-19.38-11-27.6a58.83,58.83,0,0,0-29.48-20.55c-24-7.78-47.57-7.64-69.38,7.17a66.38,66.38,0,0,0-15.78,14.46c-1.31,1.72-2.78,3.32-4.2,5-1.25,1.45-2.54,3.62-4.58,3.07l-.67.78c0-.36,0-.7,0-1.05-1.86-1-1.41-3.51-1.45-5.41-.13-6.33,0-12.66-.07-19-.07-5.19-.49-5.62-5.8-5.66q-12.49-.1-25,0c-5.68,0-6.13.53-6.17,6.42-.05,8.83,0,17.66,0,26.49q0,90.46,0,180.91c0,1.33,0,2.67,0,4,.05,6.81.33,7.12,7,7.14q11.49,0,23,0c6.83,0,7-.18,7-7q0-66.72,0-133.43c0-14.74,4.07-27.88,14.1-39,18.18-20.08,50-25.62,72.45-11.28,6.66,4.25,10.67,10.42,13.43,17.52a65.61,65.61,0,0,1,4,24q0,69.72,0,139.43c0,1.67.07,3.34,0,5-.13,3.41,1.49,4.75,4.84,4.72q12-.09,24,0c2.31,0,4.71-.22,6.66,1.49V314c-1.44-2-1.66-4,0-6v-6C2730,301.27,2730.65,298.39,2730.23,296.35Z"/><path class="cls-1" d="M2726.49,472.51q-12-.07-24,0c-3.35,0-5-1.31-4.84-4.72.06-1.66,0-3.33,0-5q0-69.72,0-139.43a65.61,65.61,0,0,0-4-24c-2.76-7.1-6.77-13.27-13.43-17.52-22.47-14.34-54.28-8.8-72.45,11.28-10,11.08-14.12,24.22-14.1,39q.09,66.72,0,133.43c0,6.8-.19,7-7,7q-11.49,0-23,0c-6.64,0-6.92-.33-7-7.14,0-1.33,0-2.67,0-4q0-90.46,0-180.91c0-8.83,0-17.66,0-26.49,0-5.89.49-6.38,6.17-6.42q12.49-.1,25,0c5.31,0,5.74.47,5.8,5.66.08,6.33-.06,12.66.07,19,0,1.9-.41,4.39,1.45,5.41,0-9.69-.23-18.36.11-27,.16-4.12-1.26-4.87-5-4.78q-15.24.36-30.49,0c-3.66-.09-4.75.76-4.7,4.6.23,18.66.1,37.32.1,56q0,81.47-.1,162.95c0,4.19,1,5.32,5.19,5.17,9.65-.33,19.33-.37,29,0,4.67.19,6.06-.84,6-5.83-.21-45.82-.16-91.64-.06-137.45,0-12.42,2.72-24,11-33.94,14.45-17.37,32.92-24.38,55.05-21.1,15.67,2.32,27.15,10.45,31.94,26.31a76.44,76.44,0,0,1,3,22.18q.07,71.73.09,143.45c0,1.17.07,2.34,0,3.5-.12,1.81.44,2.82,2.47,2.78,11.47-.26,23,.49,34.43-.39C2731.2,472.29,2728.8,472.52,2726.49,472.51Z"/><path class="cls-1" d="M2732,298.53c-2.69-21.45-12.7-37.89-32.41-47.79-17.95-9-36.82-11-56.35-7.11-19.07,3.79-32.58,15.83-44.26,30.46-.9,1.13-1.86,2.21-3.2,3.77,2,.55,3.33-1.62,4.58-3.07,1.42-1.64,2.88-3.24,4.2-5a66.38,66.38,0,0,1,15.78-14.46c21.81-14.82,45.33-15,69.38-7.17a58.83,58.83,0,0,1,29.48,20.55c6.23,8.22,9,17.73,11,27.6.42,2-.25,4.92,2.92,5.65C2731.43,301.29,2732.19,299.7,2732,298.53Z"/><path class="cls-1" d="M298.15,0h-8A13,13,0,0,0,298.15,0Z"/><path class="cls-1" d="M298.15,0a13,13,0,0,1-8,0C292.82,1.74,295.49,1.34,298.15,0Z"/><path class="cls-1" d="M293.15,617h7A10.23,10.23,0,0,0,293.15,617Z"/><path class="cls-1" d="M293.15,617a10.23,10.23,0,0,1,7,0C297.82,615.57,295.49,615.3,293.15,617Z"/><path class="cls-1" d="M318.15,617h7A10.23,10.23,0,0,0,318.15,617Z"/><path class="cls-1" d="M318.15,617a10.23,10.23,0,0,1,7,0C322.82,615.25,320.49,615.62,318.15,617Z"/><path class="cls-1" d="M323.15,0h-6A7.64,7.64,0,0,0,323.15,0Z"/><path class="cls-1" d="M323.15,0a7.64,7.64,0,0,1-6,0C319.15,1.44,321.15,1.64,323.15,0Z"/><path class="cls-1" d="M2733.15,314v-6A7.65,7.65,0,0,0,2733.15,314Z"/><path class="cls-1" d="M2733.15,314a7.65,7.65,0,0,1,0-6C2731.49,310,2731.72,312,2733.15,314Z"/><path class="cls-1" d="M1090.45,168.51c0-3.29-.88-4.27-4.18-4.21-10.66.2-21.33.23-32,0a8.66,8.66,0,0,0-7.91,3.79c-33.56,43.1-67.3,86.07-100.8,129.23-3,3.89-4.12,3.33-6.81-.13q-50.46-64.88-101.13-129.6a7.37,7.37,0,0,0-6.64-3.26c-10.5.17-21,.26-31.49,0-4.11-.11-5.29,1-5.27,5.19.16,38.83.1,77.66.1,116.49q0,91.74-.08,183.48c0,3.84.85,5.16,4.9,5,10.32-.3,20.67-.38,31,0,4.87.19,6-1.21,6-6Q835.86,349.75,836,231c0-1.8-.61-3.79.74-5.7L893,297.85c15.41,19.88,30.89,39.7,46.13,59.7,2.61,3.43,4.12,3.31,6.11-.15A21.7,21.7,0,0,1,947.1,355l102.22-130.81v6.72q0,119.24-.08,238.48c0,3.8.78,5.18,4.88,5.06,10.66-.31,21.33-.19,32,0,3,0,4.36-.37,4.35-4Q1090.3,319.5,1090.45,168.51Z"/><path class="cls-1" d="M1496.66,247.45c-24.23-1.62-46.21,4-65,20.21-7.46,6.43-13.8,13.85-20.65,22.63v-6.82q0-62.75.06-125.5c0-3.61-.48-4.68-4.34-3.18q-13.7,5.34-27.72,9.83c-3.74,1.2-5,2.79-5,6.88q.22,148.75.11,297.5a9.55,9.55,0,0,1,0,1.5c-.48,3,.62,4.08,3.78,4,6.49-.24,13,0,19.5-.09,4.32,0,10.07,1.45,12.59-.73,2.94-2.54.85-8.46,1-12.9.17-7.36,0-14.72,0-23.28l4.48,5.82c18,23.38,41.34,36.62,71.29,37.19,40.44.78,71.76-15.45,92-50.73,15.71-27.34,18.79-57.2,14.35-88C1586,291.49,1551.4,251.11,1496.66,247.45Zm59.6,115.76c-.07,18.68-2.87,34.46-10.86,48.95-13.69,24.8-35.27,36.62-63.14,36.42s-49.37-12.66-61.43-38c-14.81-31.11-15.13-63,1.52-93.59,22.27-40.87,75.91-49.54,108.54-18.22,14.41,13.83,21.45,31.35,24.26,50.8A86.69,86.69,0,0,1,1556.25,363.21Z"/><path class="cls-1" d="M1893.15,246.36c-42,3.59-72.81,24.8-90.55,63.38-11.46,24.93-13.5,51.29-8.69,78.18,4.42,24.68,15.17,46.23,34.12,62.83,30.93,27.08,67.12,34,106.4,24.51,29.74-7.2,52.13-24.93,67.52-51.51,2.26-3.9,1.45-4.93-2.59-6-8-2.21-15.9-4.84-23.71-7.64-3.53-1.27-5.37-.65-7.58,2.56-26.27,38.15-82.65,43.91-114.36,11.8-13-13.18-19.47-29.49-22.52-47.45-.66-3.88,1.26-3.9,4.1-3.89q44,.09,88,0,44.24,0,88.47,0c2.14,0,4.51.88,4.73-3,1.85-32-5.48-61.29-26.77-85.89C1964.27,254.79,1931.16,243.11,1893.15,246.36Zm82.22,100.81q-71.47-.16-142.95-.15a4.91,4.91,0,0,1-1-.38c1.31-8.61,2.81-17.16,6.27-25.13,11.38-26.14,31.89-40.28,59.83-42.31,31.21-2.27,55.65,10.34,72.09,37.37,5.1,8.39,7.47,17.7,8.52,27.4C1978.42,346.27,1978,347.17,1975.37,347.17Z"/><path class="cls-1" d="M2447.22,252.44a119.56,119.56,0,0,0-54.68-5.39c-35,4.39-63.08,20.25-81.51,51-14.27,23.83-18.32,50-16.08,77.35,5,61.68,49.92,103.67,111.4,104.1,46.57.32,88.14-26.7,105.4-69.73,14.42-36,12.33-71.76-5.11-106.24C2494,278.54,2473.71,261.63,2447.22,252.44Zm29.94,144.85c-11.67,31.13-40.12,50.1-72.37,48.35-35.56-1.93-61.21-22.77-69.61-56.61a96.58,96.58,0,0,1-3.09-25c-.07-14.52,2.07-27.42,7.27-39.68,14.72-34.7,46.89-47.14,78-43.88,36.34,3.8,59.8,30.39,64.78,67.16C2484.41,364.59,2483.19,381.21,2477.16,397.3Z"/><path class="cls-1" d="M1278,256.23c-19.56-8.37-40.12-10.71-61.15-8.15-37.62,4.58-66.89,22.16-85,56.2-12.5,23.53-15.7,48.84-12.9,75.08,6.46,60.53,50.42,100.64,115.7,101.33,39.27-1.28,73.73-19.61,95.24-58.54,19-34.45,19.25-70.74,5.25-107C1324.56,287.59,1305.21,267.85,1278,256.23Zm21.68,145.14c-12.75,30.32-42.28,48.29-73.92,45.17-36-3.55-60.45-25.11-67.64-59.57a104.15,104.15,0,0,1-2.25-22.8c-.2-14.51,2.29-28.51,8.5-41.67,15.32-32.46,46.3-43.88,75.91-41,38,3.69,61.5,31.78,65.82,69.45C1308.11,368.27,1306.5,385.19,1299.69,401.37Z"/><path class="cls-1" d="M2109.67,164.67q-15.48.46-31,0c-4.11-.12-5.26,1-5.25,5.2.17,38.33.1,76.66.1,115,0,61.16.08,122.32-.14,183.48,0,5.3,1.55,6.33,6.4,6.15,10-.37,20-.38,30,0,4.52.17,5.42-1.2,5.41-5.51-.16-49.66-.1-99.32-.1-149,0-50-.07-100,.12-150C2115.22,165.43,2113.89,164.55,2109.67,164.67Z"/><path class="cls-1" d="M1753,313.45q0-77.73,0-155.46c0-5.71,0-5.73-5.63-3.93-9,2.89-18,6-27.07,8.61-3.37,1-4.25,2.42-4.24,5.83.14,38.32.09,76.65.09,115,0,61.65.07,123.3-.13,184.95,0,5,1.41,6,6.05,5.8a254.24,254.24,0,0,1,25.48,0c4.86.26,5.56-1.53,5.55-5.83Q1752.92,390.93,1753,313.45Z"/><path class="cls-1" d="M2284.86,253c0-11.44,0-11.66-11.49-11.12-26.71,1.26-47.21,12.49-58.92,37.44-.53,1.13-1.09,2.26-1.63,3.39l-1-.25c0-10.32-.15-20.64.08-31,.08-3.58-1.1-4.49-4.53-4.41q-14,.33-28,0c-3.44-.08-4.5.84-4.49,4.39q.15,109.44,0,218.89c0,3.48,1.22,4.08,4.29,4,9.16-.17,18.33-.28,27.48,0,4.15.14,5.27-1.06,5.26-5.23-.17-37-.11-74-.09-110.94,0-9.17.1-18.39,2.46-27.29,6.3-23.77,19.29-41.82,43.82-49.47a58.54,58.54,0,0,1,21.74-2.25c4.29.31,5.35-1.17,5.15-5.26C2284.61,267.05,2284.86,260,2284.86,253Z"/><path class="cls-1" d="M1664.16,250.8c0-3.73-.65-5.19-4.8-5-8.81.36-17.66.33-26.47,0-4.34-.16-5.83.77-5.8,5.55.23,36.14.13,72.27.13,108.41,0,36.3.07,72.61-.09,108.91,0,4.32.72,6.09,5.56,5.85,8.64-.44,17.32-.36,26,0,4.25.16,5.55-.79,5.54-5.37Q1663.95,360,1664.16,250.8Z"/><path class="cls-1" d="M1645.32,178c-12.26.06-21.31,9.19-21.34,21.54,0,12.64,9.05,21.72,21.67,21.66,12.23-.06,21.59-9.38,21.51-21.43C1667.07,187.35,1657.62,177.93,1645.32,178Z"/></g></g></svg>
